# Made in Blockbench 4.2.4
mtllib materials.mtl

o cube
v 0.375 0 0
v 0.375 2 0
v -0.375 2 0
v -0.375 0 0
vt 0.5 0
vt 0.5 1
vt 0 1
vt 0 0
vn 0 0 1
usemtl m_0
f 1/1/1 2/2/1 3/3/1 4/4/1
o cube
v 8.326672684688674e-17 4.37097147478319e-20 0.375
v 8.326672684688674e-17 2 0.375
v -8.326672684688674e-17 2 -0.375
v -8.326672684688674e-17 -4.37097147478319e-20 -0.375
vt 0.5 0
vt 0.5 1
vt 0 1
vt 0 0
vn -1 0 2.220446049250313e-16
usemtl m_0
f 5/5/2 6/6/2 7/7/2 8/8/2
o cube
v 0.16624806398549213 1.181604376145969 -0.07376606508886963
v 0.16259586036735013 1.364173322948363 -0.3430340376964508
v 0.036861058910707324 1.4570839601800563 -0.33661642974181344
v 0.019412659254869315 1.3085691019212713 -0.06221683020525494
v -0.04912871945553332 1.3253627552473493 -0.37511116558453417
v -0.12277338678829569 1.153648105110843 -0.11205833457535337
v 0.030118034968048588 1.3825350736871487 -0.7721191509167525
v 0.09698436212914378 1.451933063482581 -0.7494392963242207
v 0.229716694150269 1.404676410733357 -0.7450518930861924
vt 1 0
vt 1 0.5
vt 0.75 0.5
vt 0.75 0
vt 0.75 0
vt 0.75 0.5
vt 0.5 0.5
vt 0.5 0
vt 0.5 1
vt 0.5 0.5
vt 0.75 0.5
vt 0.75 1
vt 0.75 1
vt 0.75 0.5
vt 1 0.5
vt 1 1
vn 0.5407996569065536 0.6995998513336699 0.4670072580845622
vn -0.8455638884214854 0.4901783292422106 0.21153466888161046
vn -0.8231133984209724 0.5617180290940603 -0.08340976639795905
vn 0.5950714530266755 0.8000059551030458 0.07668401132168946
usemtl m_0
f 9/9/3 10/10/3 11/11/3 12/12/3
f 12/13/4 11/14/4 13/15/4 14/16/4
f 15/17/5 13/18/5 11/19/5 16/20/5
f 16/21/6 11/22/6 10/23/6 17/24/6
o cube
v 0.10668031584064748 1.3065791123134693 0.1848417634360594
v 0.2968923536273669 1.5628114586114312 0.24820078324907377
v 0.2765022726449188 1.6675044821565512 0.1337174747778807
v 0.07288614564544438 1.4448474241194584 0.05235066746678327
v 0.3681346170794458 1.5698181030319533 0.04268205701667188
v 0.1904019190087417 1.337838105821116 -0.09407546171838156
v 0.7084905739133792 1.7358611098460044 0.19679761442671115
v 0.6550953303277157 1.783187444587341 0.2654323614749707
v 0.6491396076330243 1.7167311788899622 0.3896032381600588
vt 1 0
vt 1 0.5
vt 0.75 0.5
vt 0.75 0
vt 0.75 0
vt 0.75 0.5
vt 0.5 0.5
vt 0.5 0
vt 0.5 1
vt 0.5 0.5
vt 0.75 0.5
vt 0.75 1
vt 0.75 1
vt 0.75 0.5
vt 1 0.5
vt 1 1
vn -0.7427114188353733 0.42298807913475617 0.5190961695499556
vn -0.24887920582770892 0.5250194644453307 -0.8138880161669094
vn -0.0009183993200188459 0.6813020861301277 -0.7320017923321125
vn -0.4197735064788977 0.6313188257634027 0.6520941216535612
usemtl m_0
f 18/25/7 19/26/7 20/27/7 21/28/7
f 21/29/8 20/30/8 22/31/8 23/32/8
f 24/33/9 22/34/9 20/35/9 25/36/9
f 25/37/10 20/38/10 19/39/10 26/40/10
o cube
v -0.07545591042682458 1.2388319351131682 0.014671235071448054
v 0.1263586453242346 1.1068941839691477 0.23310501201554162
v 0.23991974693534 1.2104256550624535 0.26256554823144107
v 0.05870126203075127 1.370462348399582 0.0645646201664349
v 0.3013127180617431 1.1678036365553626 0.11889638266466385
v 0.1654559723280853 1.336514267335607 -0.12023938985879819
v 0.4879091894081822 0.8455494976774944 0.2877101538953938
v 0.4374171874352148 0.859506084028634 0.3717180936045962
v 0.32177128708511415 0.7797365864068775 0.38325782849701134
vt 1 0
vt 1 0.5
vt 0.75 0.5
vt 0.75 0
vt 0.75 0
vt 0.75 0.5
vt 0.5 0.5
vt 0.5 0
vt 0.5 1
vt 0.5 0.5
vt 0.75 0.5
vt 0.75 1
vt 0.75 1
vt 0.75 0.5
vt 1 0.5
vt 1 1
vn -0.5472466763620804 0.38944936051247553 0.740844295926668
vn 0.634891458333758 0.7714346476717097 0.042443144398826245
vn 0.8079783098364607 0.5614601494778797 0.17869961214869384
vn -0.33600954942097566 0.1021289851612733 0.9363051068363568
usemtl m_0
f 27/41/11 28/42/11 29/43/11 30/44/11
f 30/45/12 29/46/12 31/47/12 32/48/12
f 33/49/13 31/50/13 29/51/13 34/52/13
f 34/53/14 29/54/14 28/55/14 35/56/14
o cube
v -0.18031493036532542 1.3432353529094023 -0.02134105697863009
v -0.381888769661695 1.4618324301740127 0.20482861511649067
v -0.30832906970495355 1.578616116774429 0.2785399004552369
v -0.09760133958602146 1.498086068610122 0.06228776728291972
v -0.2242746056875976 1.4631517795781324 0.3548903845046203
v 0.03051658479685941 1.3700686696367237 0.18018138675364684
v -0.5243999319406073 1.4176643094804804 0.6287877030487055
v -0.5840528803421585 1.4744090136405807 0.5738047348059442
v -0.6704904196591002 1.401968887029018 0.48923942067932963
vt 1 0
vt 1 0.5
vt 0.75 0.5
vt 0.75 0
vt 0.75 0
vt 0.75 0.5
vt 0.5 0.5
vt 0.5 0
vt 0.5 1
vt 0.5 0.5
vt 0.75 0.5
vt 0.75 1
vt 0.75 1
vt 0.75 0.5
vt 1 0.5
vt 1 1
vn -0.36489651436363796 0.6503600806737456 -0.6662449243869003
vn 0.6285565891287954 0.6921477453035143 0.3547507758046999
vn 0.4252227962258423 0.6938475846958664 0.5811721799790389
vn -0.654710870359447 0.6528505231661692 -0.38097227016521124
usemtl m_0
f 36/57/15 37/58/15 38/59/15 39/60/15
f 39/61/16 38/62/16 40/63/16 41/64/16
f 42/65/17 40/66/17 38/67/17 43/68/17
f 43/69/18 38/70/18 37/71/18 44/72/18
o cube
v -0.026855931438854265 1.3165883423137148 -0.17463224044739917
v -0.21473262674442986 1.5695881094743451 -0.2555239283870382
v -0.21733272711542267 1.6684550346488167 -0.13427466824658896
v -0.02051057390226646 1.448410909213011 -0.03181554046517045
v -0.3183372875442728 1.5629969811293796 -0.0642515276395972
v -0.1555687259676617 1.329770599003644 0.0881233391948719
v -0.6359785253757239 1.7260841285416761 -0.2634265483571152
v -0.574221122713695 1.778813155301394 -0.3200590077193303
v -0.5456487686168493 1.719493000196711 -0.44469869754452557
vt 1 0
vt 1 0.5
vt 0.75 0.5
vt 0.75 0
vt 0.75 0
vt 0.75 0.5
vt 0.5 0.5
vt 0.5 0
vt 0.5 1
vt 0.5 0.5
vt 0.75 0.5
vt 0.75 1
vt 0.75 1
vt 0.75 0.5
vt 1 0.5
vt 1 1
vn 0.798588331810381 0.4747362542865892 -0.3699758980829045
vn 0.09297767054074604 0.4874254264495897 0.8682002110292605
vn -0.1447709872156791 0.639816629722144 0.7547688663369698
vn 0.49299356268296496 0.6794338111635746 -0.5434400090174605
usemtl m_0
f 45/73/19 46/74/19 47/75/19 48/76/19
f 48/77/20 47/78/20 49/79/20 50/80/20
f 51/81/21 49/82/21 47/83/21 52/84/21
f 52/85/22 47/86/22 46/87/22 53/88/22
o cube
v 0.11101571165528305 1.5426828267768748 -0.1015520038161313
v 0.24802533059851672 1.7845898128175979 -0.27054719434451396
v 0.15384506793695907 1.909205170743348 -0.26138732567529255
v 0.0038450679369587994 1.7035241373445422 -0.08013732567529275
v 0.059664805275401384 1.8324696222892143 -0.3684774570060718
v -0.14229671895166524 1.6287982078336414 -0.22070821911960548
v 0.2887705673889346 1.9705701433004732 -0.6776745759493052
v 0.356970067936959 2.002844167527539 -0.6135748256752931
v 0.46414071165528337 1.9134499527720894 -0.593739503816131
vt 1 0
vt 1 0.5
vt 0.75 0.5
vt 0.75 0
vt 0.75 0
vt 0.75 0.5
vt 0.5 0.5
vt 0.5 0
vt 0.5 1
vt 0.5 0.5
vt 0.75 0.5
vt 0.75 1
vt 0.75 1
vt 0.75 0.5
vt 1 0.5
vt 1 1
vn 0.48062126229345015 0.30274235106762154 0.8230129228034634
vn -0.7258522214059633 0.6692736009982931 0.15878098024261666
vn -0.5817524375544095 0.8104261944025438 -0.06909041051921166
vn 0.6948092927232372 0.48615731743992785 0.5299916126176415
usemtl m_0
f 54/89/23 55/90/23 56/91/23 57/92/23
f 57/93/24 56/94/24 58/95/24 59/96/24
f 60/97/25 58/98/25 56/99/25 61/100/25
f 61/101/26 56/102/26 55/103/26 62/104/26
o cube
v -0.1991555260273724 1.8051168235370632 -0.13989080254725483
v -0.3662869404821616 2.0790205412888474 -0.1786478305758929
v -0.3374274748778905 2.1255361520192233 -0.07220539682216817
v -0.09304302685145364 1.915475701900933 -0.019994522434360115
v -0.39317051369946265 2.1057444759965045 0.035654770446145276
v -0.21556645104541047 1.8565293808344905 0.14797840471915477
v -0.6117679402588174 2.2068110628529007 -0.03959478321237932
v -0.6442241468849188 2.242280693427542 -0.12792689774804664
v -0.5981363382044917 2.17299701925217 -0.2389268927201062
vt 1 0
vt 1 0.5
vt 0.75 0.5
vt 0.75 0
vt 0.75 0
vt 0.75 0.5
vt 0.5 0.5
vt 0.5 0
vt 0.5 1
vt 0.5 0.5
vt 0.75 0.5
vt 0.75 1
vt 0.75 1
vt 0.75 0.5
vt 1 0.5
vt 1 1
vn 0.8041259983103348 0.4330374372501758 -0.4072590782060082
vn 0.5409194536442071 0.7321821893898686 0.4139026288990097
vn 0.3039047756932305 0.8967757437817742 0.3216133589817019
vn 0.38768415006598284 0.8014687779816081 -0.45535568263532666
usemtl m_0
f 63/105/27 64/106/27 65/107/27 66/108/27
f 66/109/28 65/110/28 67/111/28 68/112/28
f 69/113/29 67/114/29 65/115/29 70/116/29
f 70/117/30 65/118/30 64/119/30 71/120/30
o cube
v 0.22942549748676602 1.7354602287253345 0.08394294809724556
v 0.4357901808217407 1.9622680106933115 0.07378925365517494
v 0.39444774214827866 2.0164495229014165 -0.024606523690065052
v 0.1292461765500328 1.8718397599974474 -0.011863051749602622
v 0.414455944891913 1.9843516743011662 -0.1416629734833384
v 0.18641783886070656 1.785293105923092 -0.20144849474871207
v 0.8092021867773526 2.0655227596836103 -0.1674417928878556
v 0.7842341886223064 2.1035034021360604 -0.07948934910697618
v 0.7865387551988836 1.9969409277197983 0.03193636838758462
vt 1 0
vt 1 0.5
vt 0.75 0.5
vt 0.75 0
vt 0.75 0
vt 0.75 0.5
vt 0.5 0.5
vt 0.5 0
vt 0.5 1
vt 0.5 0.5
vt 0.75 0.5
vt 0.75 1
vt 0.75 1
vt 0.75 0.5
vt 1 0.5
vt 1 1
vn -0.5977641316733102 0.5691596655995345 0.5645664867307302
vn -0.46692363773077605 0.8292261767140358 -0.3071909249643974
vn -0.21089496246726674 0.9329200192616831 -0.29186221486638336
vn -0.1167955328911457 0.8484302875604817 0.5162604484625097
usemtl m_0
f 72/121/31 73/122/31 74/123/31 75/124/31
f 75/125/32 74/126/32 76/127/32 77/128/32
f 78/129/33 76/130/33 74/131/33 79/132/33
f 79/133/34 74/134/34 73/135/34 80/136/34
o cube
v -0.11806152876670598 1.6711014527404566 0.22974090629065047
v -0.054135955734913255 1.9362869929485782 0.4070546124080413
v -0.015521812396519702 2.0518208946261 0.3088523823039806
v -0.08397391696593257 1.8205746373104752 0.11011706119186825
v 0.12729827948635675 1.9769405432172524 0.2939555092275775
v 0.11469265741093645 1.7463187217328984 0.06865365893040176
v 0.2642257459170262 2.157926078254794 0.6340425091909003
v 0.1728592707589327 2.190121880753322 0.6544670047455332
v 0.10179535463592315 2.108215044052661 0.7445308844474045
vt 1 0
vt 1 0.5
vt 0.75 0.5
vt 0.75 0
vt 0.75 0
vt 0.75 0.5
vt 0.5 0.5
vt 0.5 0
vt 0.5 1
vt 0.5 0.5
vt 0.75 0.5
vt 0.75 1
vt 0.75 1
vt 0.75 0.5
vt 1 0.5
vt 1 1
vn -0.9607694652719645 0.2710129788689652 -0.058940647142642605
vn 0.23100848191805481 0.5939190610524663 -0.7706459824072743
vn 0.3439212393771087 0.7644458370078537 -0.5452895958907299
vn -0.8309270553802741 0.49448872158893287 0.2550316310938897
usemtl m_0
f 81/137/35 82/138/35 83/139/35 84/140/35
f 84/141/36 83/142/36 85/143/36 86/144/36
f 87/145/37 85/146/37 83/147/37 88/148/37
f 88/149/38 83/150/38 82/151/38 89/152/38