# Made in Blockbench 4.3.1
mtllib materials.mtl

o building
v 1.6875 2.575209588521707 -1.7621756818529395
v 1.5625 2.63676007308497 -1.7513226707487557
v 1.5625 2.028991451250714 1.6955044647939723
v 1.6875 1.9674409666874506 1.684651453689789
v 1.4375 2.63676007308497 -1.7513226707487557
v 1.4375 2.028991451250714 1.6955044647939723
v 1.3125 2.575209588521707 -1.7621756818529395
v 1.3125 1.9674409666874506 1.684651453689789
v 1.1875 2.63676007308497 -1.7513226707487557
v 1.1875 2.028991451250714 1.6955044647939723
v 1.0625 2.63676007308497 -1.7513226707487557
v 1.0625 2.028991451250714 1.6955044647939723
v 0.9375 2.575209588521707 -1.7621756818529395
v 0.9375 1.9674409666874506 1.684651453689789
v 0.8125 2.63676007308497 -1.7513226707487557
v 0.8125 2.028991451250714 1.6955044647939723
v 0.6875 2.63676007308497 -1.7513226707487557
v 0.6875 2.028991451250714 1.6955044647939723
v 0.5625 2.575209588521707 -1.7621756818529395
v 0.5625 1.9674409666874506 1.684651453689789
v 0.4375 2.63676007308497 -1.7513226707487557
v 0.4375 2.028991451250714 1.6955044647939723
v 0.3125 2.63676007308497 -1.7513226707487557
v 0.3125 2.028991451250714 1.6955044647939723
v 0.1875 2.575209588521707 -1.7621756818529395
v 0.1875 1.9674409666874506 1.684651453689789
v 0.0625 2.63676007308497 -1.7513226707487557
v 0.0625 2.028991451250714 1.6955044647939723
v -0.0625 2.63676007308497 -1.7513226707487557
v -0.0625 2.028991451250714 1.6955044647939723
v -0.1875 2.575209588521707 -1.7621756818529395
v -0.1875 1.9674409666874506 1.684651453689789
v -0.3125 2.63676007308497 -1.7513226707487557
v -0.3125 2.028991451250714 1.6955044647939723
v -0.4375 2.63676007308497 -1.7513226707487557
v -0.4375 2.028991451250714 1.6955044647939723
v -0.5625 2.575209588521707 -1.7621756818529395
v -0.5625 1.9674409666874506 1.684651453689789
v -0.6875 2.63676007308497 -1.7513226707487557
v -0.6875 2.028991451250714 1.6955044647939723
v -0.8125 2.63676007308497 -1.7513226707487557
v -0.8125 2.028991451250714 1.6955044647939723
v -0.9375 2.575209588521707 -1.7621756818529395
v -0.9375 1.9674409666874506 1.684651453689789
v -1.0625 2.63676007308497 -1.7513226707487557
v -1.0625 2.028991451250714 1.6955044647939723
v -1.1875 2.63676007308497 -1.7513226707487557
v -1.1875 2.028991451250714 1.6955044647939723
v -1.3125 2.575209588521707 -1.7621756818529395
v -1.3125 1.9674409666874506 1.684651453689789
v -1.4375 2.63676007308497 -1.7513226707487557
v -1.4375 2.028991451250714 1.6955044647939723
v -1.5625 2.63676007308497 -1.7513226707487557
v -1.5625 2.028991451250714 1.6955044647939723
v -1.6875 2.575209588521707 -1.7621756818529395
v -1.6875 1.9674409666874506 1.684651453689789
v 1.6875 2.581459588521707 -1.7621756818529395
v 1.5625 2.64301007308497 -1.7513226707487557
v 1.5625 2.035241451250714 1.6955044647939723
v 1.6875 1.973690966687451 1.684651453689789
v 1.4375 2.64301007308497 -1.7513226707487557
v 1.4375 2.035241451250714 1.6955044647939723
v 1.3125 2.581459588521707 -1.7621756818529395
v 1.3125 1.973690966687451 1.684651453689789
v 1.1875 2.64301007308497 -1.7513226707487557
v 1.1875 2.035241451250714 1.6955044647939723
v 1.0625 2.64301007308497 -1.7513226707487557
v 1.0625 2.035241451250714 1.6955044647939723
v 0.9375 2.581459588521707 -1.7621756818529395
v 0.9375 1.973690966687451 1.684651453689789
v 0.8125 2.64301007308497 -1.7513226707487557
v 0.8125 2.035241451250714 1.6955044647939723
v 0.6875 2.64301007308497 -1.7513226707487557
v 0.6875 2.035241451250714 1.6955044647939723
v 0.5625 2.581459588521707 -1.7621756818529395
v 0.5625 1.973690966687451 1.684651453689789
v 0.4375 2.64301007308497 -1.7513226707487557
v 0.4375 2.035241451250714 1.6955044647939723
v 0.3125 2.64301007308497 -1.7513226707487557
v 0.3125 2.035241451250714 1.6955044647939723
v 0.1875 2.581459588521707 -1.7621756818529395
v 0.1875 1.973690966687451 1.684651453689789
v 0.0625 2.64301007308497 -1.7513226707487557
v 0.0625 2.035241451250714 1.6955044647939723
v -0.0625 2.64301007308497 -1.7513226707487557
v -0.0625 2.035241451250714 1.6955044647939723
v -0.1875 2.581459588521707 -1.7621756818529395
v -0.1875 1.973690966687451 1.684651453689789
v -0.3125 2.64301007308497 -1.7513226707487557
v -0.3125 2.035241451250714 1.6955044647939723
v -0.4375 2.64301007308497 -1.7513226707487557
v -0.4375 2.035241451250714 1.6955044647939723
v -0.5625 2.581459588521707 -1.7621756818529395
v -0.5625 1.973690966687451 1.684651453689789
v -0.6875 2.64301007308497 -1.7513226707487557
v -0.6875 2.035241451250714 1.6955044647939723
v -0.8125 2.64301007308497 -1.7513226707487557
v -0.8125 2.035241451250714 1.6955044647939723
v -0.9375 2.581459588521707 -1.7621756818529395
v -0.9375 1.973690966687451 1.684651453689789
v -1.0625 2.64301007308497 -1.7513226707487557
v -1.0625 2.035241451250714 1.6955044647939723
v -1.1875 2.64301007308497 -1.7513226707487557
v -1.1875 2.035241451250714 1.6955044647939723
v -1.3125 2.581459588521707 -1.7621756818529395
v -1.3125 1.973690966687451 1.684651453689789
v -1.4375 2.64301007308497 -1.7513226707487557
v -1.4375 2.035241451250714 1.6955044647939723
v -1.5625 2.64301007308497 -1.7513226707487557
v -1.5625 2.035241451250714 1.6955044647939723
v -1.6875 2.581459588521707 -1.7621756818529395
v -1.6875 1.973690966687451 1.684651453689789
v -0.3446720353425753 1.125 -1.542256281510169
v -0.34603514119774204 1.0625 -1.5734765384346026
v -0.377255398122175 1.0624999999999998 -1.5721134325794357
v -0.37589229226700827 1.125 -1.540893175655003
v -1.3125 0 -1.5000000000000004
v -1.3125 2 -1.5000000000000009
v -0.2822315214937092 2 -1.5449824932205027
v -0.2822315214937092 0 -1.5449824932205032
v -1.3097737882896665 -4.440892098500626e-16 -1.4375594861511338
v -1.3097737882896665 2 -1.4375594861511343
v -0.27950530978337573 2 -1.4825419793716366
v -0.27950530978337573 0 -1.4825419793716366
v -0.37589229226700827 0.875 -1.540893175655003
v -0.377255398122175 0.9375 -1.5721134325794361
v -0.34603514119774204 0.9375 -1.5734765384346026
v -0.3446720353425753 0.875 -1.5422562815101695
v 0.06249999999999978 1.0000000000000002 -1.5625000000000004
v 0.06249999999999978 2 -1.5625
v 1.0937499999999996 2 -1.5625
v 1.0937499999999996 1.0000000000000002 -1.5625000000000004
v 0.062499999999999556 1 -1.5000000000000004
v 0.062499999999999556 2 -1.5000000000000009
v 1.0937499999999996 2 -1.5000000000000009
v 1.0937499999999996 1 -1.5000000000000004
v 1.4999999999999996 2.5000000000000004 -1.5000000000000004
v 1.4999999999999996 2 -1.5000000000000009
v -1.5 2 -1.5000000000000009
v -1.5 2.5000000000000004 -1.5000000000000009
v -1.5 0 -1.5000000000000004
v -1.3125 2 -1.5000000000000009
v -1.3125 0 -1.5000000000000004
v -0.2812500000000002 0 -1.5000000000000004
v -0.2812500000000002 2 -1.5000000000000009
v 1.4999999999999996 0 -1.5000000000000004
v 1.4999999999999996 2.5000000000000004 -1.5000000000000004
v 1.4999999999999996 2 1.4999999999999996
v 1.4999999999999996 0 1.4999999999999998
v 1.4999999999999996 0 -1.5000000000000004
v -1.5 2 1.4999999999999996
v -1.5 2.5000000000000004 -1.5000000000000009
v -1.5 0 1.4999999999999998
v -1.5 0 -1.5000000000000004
vt 0.28700078125 0.083984375
vt 0.28700078125000006 0.521484375
vt 0.3044703125 0.521484375
vt 0.30447031249999995 0.083984375
vt 0.27059453125000005 0.083984375
vt 0.27059453125000005 0.521484375
vt 0.28621953125000005 0.521484375
vt 0.28621953125000005 0.083984375
vt 0.25390625 0.083984375
vt 0.25390625 0.521484375
vt 0.27137578125 0.521484375
vt 0.27137578125000006 0.083984375
vt 0.03309453125 0.083984375
vt 0.03309453125000003 0.521484375
vt 0.050564062500000034 0.521484375
vt 0.05056406250000001 0.083984375
vt 0.01746953125000003 0.083984375
vt 0.01746953125000003 0.521484375
vt 0.03309453125000003 0.521484375
vt 0.03309453125000003 0.083984375
vt 2.7755575615628914e-17 0.083984375
vt 0 0.521484375
vt 0.017469531250000003 0.521484375
vt 0.01746953125000003 0.083984375
vt 0.38856250000000003 0.083984375
vt 0.38856250000000003 0.521484375
vt 0.40603125000000007 0.521484375
vt 0.40603125000000007 0.083984375
vt 0.37215625 0.083984375
vt 0.37215625 0.521484375
vt 0.38778125 0.521484375
vt 0.38778125 0.083984375
vt 0.35546875 0.083984375
vt 0.35546875 0.521484375
vt 0.37293750000000003 0.521484375
vt 0.37293750000000003 0.083984375
vt 0.23543828125 0.083984375
vt 0.23543828125 0.521484375
vt 0.2529078125 0.521484375
vt 0.2529078125 0.083984375
vt 0.22059453125000006 0.083984375
vt 0.22059453125000006 0.521484375
vt 0.23621953125 0.521484375
vt 0.23621953125 0.083984375
vt 0.20234375000000002 0.083984375
vt 0.20234375 0.521484375
vt 0.21981328125 0.521484375
vt 0.21981328125000002 0.083984375
vt 0.08387578125 0.083984375
vt 0.08387578125000003 0.521484375
vt 0.10134531250000003 0.521484375
vt 0.1013453125 0.083984375
vt 0.06825078125000003 0.083984375
vt 0.06825078125000003 0.521484375
vt 0.08387578125000003 0.521484375
vt 0.08387578125000003 0.083984375
vt 0.05078125000000003 0.083984375
vt 0.05078125 0.521484375
vt 0.06825078125 0.521484375
vt 0.06825078125000003 0.083984375
vt 0.33700078125 0.083984375
vt 0.33700078125000005 0.521484375
vt 0.3544695312500001 0.521484375
vt 0.35446953125 0.083984375
vt 0.32215703125000006 0.083984375
vt 0.32215703125000006 0.521484375
vt 0.33778203125000006 0.521484375
vt 0.33778203125000006 0.083984375
vt 0.30390625 0.083984375
vt 0.30390625 0.521484375
vt 0.32137578125 0.521484375
vt 0.32137578125000005 0.083984375
vt 0.13465703125 0.083984375
vt 0.13465703125000003 0.521484375
vt 0.15212656250000003 0.521484375
vt 0.1521265625 0.083984375
vt 0.11903203125000003 0.083984375
vt 0.11903203125000003 0.521484375
vt 0.13465703125000003 0.521484375
vt 0.13465703125000003 0.083984375
vt 0.10156250000000003 0.083984375
vt 0.1015625 0.521484375
vt 0.11903203125 0.521484375
vt 0.11903203125000003 0.083984375
vt 0.43934375000000003 0.083984375
vt 0.43934375000000003 0.521484375
vt 0.45681250000000007 0.521484375
vt 0.45681249999999995 0.083984375
vt 0.42371875000000003 0.083984375
vt 0.42371875000000003 0.521484375
vt 0.43934375000000003 0.521484375
vt 0.43934375000000003 0.083984375
vt 0.40546875 0.083984375
vt 0.40546875 0.521484375
vt 0.4229375 0.521484375
vt 0.4229375 0.083984375
vt 0.18543828125 0.083984375
vt 0.18543828125000006 0.521484375
vt 0.2029078125 0.521484375
vt 0.2029078125 0.083984375
vt 0.16903203125000002 0.083984375
vt 0.16903203125000002 0.521484375
vt 0.18465703125000002 0.521484375
vt 0.18465703125000002 0.083984375
vt 0.15234375000000003 0.083984375
vt 0.15234375 0.521484375
vt 0.16981328125 0.521484375
vt 0.16981328125000006 0.083984375
vt 0.3044703125 0.521484375
vt 0.28700078125000006 0.521484375
vt 0.28700078125 0.083984375
vt 0.30447031249999995 0.083984375
vt 0.28621953125000005 0.521484375
vt 0.27059453125000005 0.521484375
vt 0.27059453125000005 0.083984375
vt 0.28621953125000005 0.083984375
vt 0.27137578125 0.521484375
vt 0.25390625 0.521484375
vt 0.25390625 0.083984375
vt 0.27137578125000006 0.083984375
vt 0.050564062500000034 0.521484375
vt 0.03309453125000003 0.521484375
vt 0.03309453125 0.083984375
vt 0.05056406250000001 0.083984375
vt 0.03309453125000003 0.521484375
vt 0.01746953125000003 0.521484375
vt 0.01746953125000003 0.083984375
vt 0.03309453125000003 0.083984375
vt 0.017469531250000003 0.521484375
vt 0 0.521484375
vt 2.7755575615628914e-17 0.083984375
vt 0.01746953125000003 0.083984375
vt 0.40603125000000007 0.521484375
vt 0.38856250000000003 0.521484375
vt 0.38856250000000003 0.083984375
vt 0.40603125000000007 0.083984375
vt 0.38778125 0.521484375
vt 0.37215625 0.521484375
vt 0.37215625 0.083984375
vt 0.38778125 0.083984375
vt 0.37293750000000003 0.521484375
vt 0.35546875 0.521484375
vt 0.35546875 0.083984375
vt 0.37293750000000003 0.083984375
vt 0.2529078125 0.521484375
vt 0.23543828125 0.521484375
vt 0.23543828125 0.083984375
vt 0.2529078125 0.083984375
vt 0.23621953125 0.521484375
vt 0.22059453125000006 0.521484375
vt 0.22059453125000006 0.083984375
vt 0.23621953125 0.083984375
vt 0.21981328125 0.521484375
vt 0.20234375 0.521484375
vt 0.20234375000000002 0.083984375
vt 0.21981328125000002 0.083984375
vt 0.10134531250000003 0.521484375
vt 0.08387578125000003 0.521484375
vt 0.08387578125 0.083984375
vt 0.1013453125 0.083984375
vt 0.08387578125000003 0.521484375
vt 0.06825078125000003 0.521484375
vt 0.06825078125000003 0.083984375
vt 0.08387578125000003 0.083984375
vt 0.06825078125 0.521484375
vt 0.05078125 0.521484375
vt 0.05078125000000003 0.083984375
vt 0.06825078125000003 0.083984375
vt 0.3544695312500001 0.521484375
vt 0.33700078125000005 0.521484375
vt 0.33700078125 0.083984375
vt 0.35446953125 0.083984375
vt 0.33778203125000006 0.521484375
vt 0.32215703125000006 0.521484375
vt 0.32215703125000006 0.083984375
vt 0.33778203125000006 0.083984375
vt 0.32137578125 0.521484375
vt 0.30390625 0.521484375
vt 0.30390625 0.083984375
vt 0.32137578125000005 0.083984375
vt 0.15212656250000003 0.521484375
vt 0.13465703125000003 0.521484375
vt 0.13465703125 0.083984375
vt 0.1521265625 0.083984375
vt 0.13465703125000003 0.521484375
vt 0.11903203125000003 0.521484375
vt 0.11903203125000003 0.083984375
vt 0.13465703125000003 0.083984375
vt 0.11903203125 0.521484375
vt 0.1015625 0.521484375
vt 0.10156250000000003 0.083984375
vt 0.11903203125000003 0.083984375
vt 0.45681250000000007 0.521484375
vt 0.43934375000000003 0.521484375
vt 0.43934375000000003 0.083984375
vt 0.45681249999999995 0.083984375
vt 0.43934375000000003 0.521484375
vt 0.42371875000000003 0.521484375
vt 0.42371875000000003 0.083984375
vt 0.43934375000000003 0.083984375
vt 0.4229375 0.521484375
vt 0.40546875 0.521484375
vt 0.40546875 0.083984375
vt 0.4229375 0.083984375
vt 0.2029078125 0.521484375
vt 0.18543828125000006 0.521484375
vt 0.18543828125 0.083984375
vt 0.2029078125 0.083984375
vt 0.18465703125000002 0.521484375
vt 0.16903203125000002 0.521484375
vt 0.16903203125000002 0.083984375
vt 0.18465703125000002 0.083984375
vt 0.16981328125 0.521484375
vt 0.15234375 0.521484375
vt 0.15234375000000003 0.083984375
vt 0.16981328125000006 0.083984375
vt 0.1015625 0.8046875
vt 0.1015625 0.80078125
vt 0.10546875 0.80078125
vt 0.10546875 0.8046875
vt 0.375 0.5234375
vt 0.375 0.6484375
vt 0.30859375 0.6484375
vt 0.30859375 0.5234375
vt 0.015625 0.8046875
vt 0.015625 0.6796875
vt 0.01953125 0.6796875
vt 0.01953125 0.8046875
vt 0.08984375 0.8046875
vt 0.0234375 0.8046875
vt 0.0234375 0.80078125
vt 0.08984375 0.80078125
vt 0.38671875 0.80859375
vt 0.38671875 0.93359375
vt 0.3828125 0.93359375
vt 0.3828125 0.80859375
vt 0.0234375 0.79296875
vt 0.08984375 0.79296875
vt 0.08984375 0.796875
vt 0.0234375 0.796875
vt 0.11328125 0.80078125
vt 0.11328125 0.8046875
vt 0.109375 0.8046875
vt 0.109375 0.80078125
vt 0.09765625 0.796875
vt 0.09765625 0.8046875
vt 0.09375 0.8046875
vt 0.09375 0.796875
vt 0.44921875 0.9375
vt 0.44921875 1
vt 0.3828125 1
vt 0.3828125 0.9375
vt 0.390625 0.93359375
vt 0.390625 0.87109375
vt 0.39453125 0.87109375
vt 0.39453125 0.93359375
vt 0.3828125 0.546875
vt 0.3828125 0.61328125
vt 0.37890625 0.61328125
vt 0.37890625 0.546875
vt 0.390625 0.55078125
vt 0.390625 0.61328125
vt 0.38671875 0.61328125
vt 0.38671875 0.55078125
vt 0.26953125 0.8046875
vt 0.3359375 0.8046875
vt 0.3359375 0.80859375
vt 0.26953125 0.80859375
vt 0.37890625 0.6484375
vt 0.37890625 0.6171875
vt 0.56640625 0.6171875
vt 0.56640625 0.6484375
vt 0.01171875 0.6796875
vt 0.01171875 0.8046875
vt 0 0.8046875
vt 0 0.6796875
vt 0.3046875 0.5234375
vt 0.3046875 0.6484375
vt 0.19140625 0.6484375
vt 0.19140625 0.5234375
vt 0.21484375 0.80859375
vt 0.02734375 0.77734375
vt 0.02734375 0.65234375
vt 0.21484375 0.65234375
vt 0 0.80859375
vt 0.1875 0.80859375
vt 0.1875 1
vt 0 1
vt 0.37890625 0.8125
vt 0.37890625 1
vt 0.19140625 1
vt 0.19140625 0.8125
vt 0.1875 0.5234375
vt 0.1875 0.6484375
vt 0 0.6484375
vt 0 0.5234375
vt 0.40625 0.65234375
vt 0.40625 0.77734375
vt 0.21875 0.80859375
vt 0.21875 0.65234375
vn -0.4472135954999577 -0.8808388322016486 -0.15531565177288678
vn 0 -0.9848077530122081 -0.17364817766693022
vn 0.447213595499958 -0.8808388322016484 -0.1553156517728869
vn -0.4472135954999577 -0.8808388322016486 -0.15531565177288678
vn 0 -0.9848077530122081 -0.17364817766693022
vn 0.447213595499958 -0.8808388322016484 -0.1553156517728869
vn -0.4472135954999577 -0.8808388322016486 -0.15531565177288678
vn 0 -0.9848077530122081 -0.17364817766693022
vn 0.447213595499958 -0.8808388322016484 -0.1553156517728869
vn -0.4472135954999577 -0.8808388322016486 -0.15531565177288678
vn 0 -0.9848077530122081 -0.17364817766693022
vn 0.447213595499958 -0.8808388322016484 -0.1553156517728869
vn -0.4472135954999577 -0.8808388322016486 -0.15531565177288678
vn 0 -0.9848077530122081 -0.17364817766693022
vn 0.447213595499958 -0.8808388322016484 -0.1553156517728869
vn -0.4472135954999577 -0.8808388322016486 -0.15531565177288678
vn 0 -0.9848077530122081 -0.17364817766693022
vn 0.447213595499958 -0.8808388322016484 -0.1553156517728869
vn -0.4472135954999577 -0.8808388322016486 -0.15531565177288678
vn 0 -0.9848077530122081 -0.17364817766693022
vn 0.447213595499958 -0.8808388322016484 -0.1553156517728869
vn -0.4472135954999577 -0.8808388322016486 -0.15531565177288678
vn 0 -0.9848077530122081 -0.17364817766693022
vn 0.447213595499958 -0.8808388322016484 -0.1553156517728869
vn -0.4472135954999577 -0.8808388322016486 -0.15531565177288678
vn 0 -0.9848077530122081 -0.17364817766693022
vn 0.447213595499958 -0.8808388322016484 -0.1553156517728869
vn 0.4472135954999578 0.8808388322016485 0.15531565177288678
vn 0 0.9848077530122081 0.17364817766693022
vn -0.44721359549995776 0.8808388322016485 0.15531565177288686
vn 0.4472135954999578 0.8808388322016485 0.15531565177288678
vn 0 0.9848077530122081 0.17364817766693022
vn -0.44721359549995776 0.8808388322016485 0.15531565177288686
vn 0.4472135954999578 0.8808388322016485 0.15531565177288678
vn 0 0.9848077530122081 0.17364817766693022
vn -0.44721359549995776 0.8808388322016485 0.15531565177288686
vn 0.4472135954999578 0.8808388322016485 0.15531565177288678
vn 0 0.9848077530122081 0.17364817766693022
vn -0.44721359549995776 0.8808388322016485 0.15531565177288686
vn 0.4472135954999578 0.8808388322016485 0.15531565177288678
vn 0 0.9848077530122081 0.17364817766693022
vn -0.44721359549995776 0.8808388322016485 0.15531565177288686
vn 0.4472135954999578 0.8808388322016485 0.15531565177288678
vn 0 0.9848077530122081 0.17364817766693022
vn -0.44721359549995776 0.8808388322016485 0.15531565177288686
vn 0.4472135954999578 0.8808388322016485 0.15531565177288678
vn 0 0.9848077530122081 0.17364817766693022
vn -0.44721359549995776 0.8808388322016485 0.15531565177288686
vn 0.4472135954999578 0.8808388322016485 0.15531565177288678
vn 0 0.9848077530122081 0.17364817766693022
vn -0.44721359549995776 0.8808388322016485 0.15531565177288686
vn 0.4472135954999578 0.8808388322016485 0.15531565177288678
vn 0 0.9848077530122081 0.17364817766693022
vn -0.44721359549995776 0.8808388322016485 0.15531565177288686
vn -0.03901436611432092 0.4472135954999634 -0.8935758945029196
vn -0.04361938736533513 -2.2183326766219878e-16 -0.9990482215818579
vn -0.9990482215818579 9.685449634607831e-18 0.043619387365335535
vn 0 1 0
vn 0.9990482215818579 9.685449634607899e-18 -0.04361938736533584
vn 0 -1 0
vn -0.03901436611430518 -0.44721359549995837 -0.893575894502923
vn -0.04361938736533954 3.5493322825951855e-15 -0.9990482215818576
vn 0 4.440892098500627e-16 -1
vn -1 1.577721810442024e-30 -3.552713678800501e-15
vn 0 1 0
vn 1 0 0
vn 0 -1 -3.552713678800501e-15
vn 0 8.881784197001244e-16 -1
vn 0 -2.220446049250313e-16 -1
vn 0 -2.220446049250313e-16 -1
vn 1 0 0
vn 0 0.9863939238321437 0.16439898730535743
vn 0 -1 0
vn 0 1.1102230246251565e-16 1
vn -1 0 0
usemtl m_0
f 3/1/1 2/2/1 1/3/1 4/4/1
f 6/5/2 5/6/2 2/7/2 3/8/2
f 8/9/3 7/10/3 5/11/3 6/12/3
f 10/13/4 9/14/4 7/15/4 8/16/4
f 12/17/5 11/18/5 9/19/5 10/20/5
f 14/21/6 13/22/6 11/23/6 12/24/6
f 16/25/7 15/26/7 13/27/7 14/28/7
f 18/29/8 17/30/8 15/31/8 16/32/8
f 20/33/9 19/34/9 17/35/9 18/36/9
f 22/37/10 21/38/10 19/39/10 20/40/10
f 24/41/11 23/42/11 21/43/11 22/44/11
f 26/45/12 25/46/12 23/47/12 24/48/12
f 28/49/13 27/50/13 25/51/13 26/52/13
f 30/53/14 29/54/14 27/55/14 28/56/14
f 32/57/15 31/58/15 29/59/15 30/60/15
f 34/61/16 33/62/16 31/63/16 32/64/16
f 36/65/17 35/66/17 33/67/17 34/68/17
f 38/69/18 37/70/18 35/71/18 36/72/18
f 40/73/19 39/74/19 37/75/19 38/76/19
f 42/77/20 41/78/20 39/79/20 40/80/20
f 44/81/21 43/82/21 41/83/21 42/84/21
f 46/85/22 45/86/22 43/87/22 44/88/22
f 48/89/23 47/90/23 45/91/23 46/92/23
f 50/93/24 49/94/24 47/95/24 48/96/24
f 52/97/25 51/98/25 49/99/25 50/100/25
f 54/101/26 53/102/26 51/103/26 52/104/26
f 56/105/27 55/106/27 53/107/27 54/108/27
f 57/109/28 58/110/28 59/111/28 60/112/28
f 58/113/29 61/114/29 62/115/29 59/116/29
f 61/117/30 63/118/30 64/119/30 62/120/30
f 63/121/31 65/122/31 66/123/31 64/124/31
f 65/125/32 67/126/32 68/127/32 66/128/32
f 67/129/33 69/130/33 70/131/33 68/132/33
f 69/133/34 71/134/34 72/135/34 70/136/34
f 71/137/35 73/138/35 74/139/35 72/140/35
f 73/141/36 75/142/36 76/143/36 74/144/36
f 75/145/37 77/146/37 78/147/37 76/148/37
f 77/149/38 79/150/38 80/151/38 78/152/38
f 79/153/39 81/154/39 82/155/39 80/156/39
f 81/157/40 83/158/40 84/159/40 82/160/40
f 83/161/41 85/162/41 86/163/41 84/164/41
f 85/165/42 87/166/42 88/167/42 86/168/42
f 87/169/43 89/170/43 90/171/43 88/172/43
f 89/173/44 91/174/44 92/175/44 90/176/44
f 91/177/45 93/178/45 94/179/45 92/180/45
f 93/181/46 95/182/46 96/183/46 94/184/46
f 95/185/47 97/186/47 98/187/47 96/188/47
f 97/189/48 99/190/48 100/191/48 98/192/48
f 99/193/49 101/194/49 102/195/49 100/196/49
f 101/197/50 103/198/50 104/199/50 102/200/50
f 103/201/51 105/202/51 106/203/51 104/204/51
f 105/205/52 107/206/52 108/207/52 106/208/52
f 107/209/53 109/210/53 110/211/53 108/212/53
f 109/213/54 111/214/54 112/215/54 110/216/54
f 113/217/55 114/218/55 115/219/55 116/220/55
f 117/221/56 118/222/56 119/223/56 120/224/56
f 118/225/57 117/226/57 121/227/57 122/228/57
f 119/229/58 118/230/58 122/231/58 123/232/58
f 120/233/59 119/234/59 123/235/59 124/236/59
f 117/237/60 120/238/60 124/239/60 121/240/60
f 125/241/61 126/242/61 127/243/61 128/244/61
f 126/245/62 115/246/62 114/247/62 127/248/62
f 129/249/63 130/250/63 131/251/63 132/252/63
f 130/253/64 129/254/64 133/255/64 134/256/64
f 131/257/65 130/258/65 134/259/65 135/260/65
f 132/261/66 131/262/66 135/263/66 136/264/66
f 129/265/67 132/266/67 136/267/67 133/268/67
f 137/269/68 138/270/68 139/271/68 140/272/68
f 141/273/69 139/274/69 142/275/69 143/276/69
f 144/277/70 145/278/70 138/279/70 146/280/70
f 147/281/71 148/282/71 149/283/71 150/284/71
f 151/285/72 148/286/72 147/287/72 152/288/72
f 150/289/73 149/290/73 153/291/73 154/292/73
f 149/293/74 148/294/74 151/295/74 153/296/74
f 153/297/75 151/298/75 152/299/75 154/300/75