
v 1 -1 1
v -1 1 1
v -1 -1 1
v 1 1 1
vt 1 1
vt 0 0
vt 0 1
vt 1 0
vn 0 0 1
f 2/2/1 3/3/1 1/1/1
f 2/2/1 1/1/1 4/4/1

v 1 -1 0.9
v -1 1 0.9
v -1 -1 0.9
v 1 1 0.9
f 6/2/1 7/3/1 5/1/1
f 6/2/1 5/1/1 8/4/1

v 1 -1 0.8
v -1 1 0.8
v -1 -1 0.8
v 1 1 0.8
f 10/2/1 11/3/1 9/1/1
f 10/2/1 9/1/1 12/4/1

v 1 -1 0.7
v -1 1 0.7
v -1 -1 0.7
v 1 1 0.7
f 14/2/1 15/3/1 13/1/1
f 14/2/1 13/1/1 16/4/1

v 1 -1 0.6
v -1 1 0.6
v -1 -1 0.6
v 1 1 0.6
f 18/2/1 19/3/1 17/1/1
f 18/2/1 17/1/1 20/4/1

v 1 -1 0.5
v -1 1 0.5
v -1 -1 0.5
v 1 1 0.5
f 22/2/1 23/3/1 21/1/1
f 22/2/1 21/1/1 24/4/1

v 1 -1 0.4
v -1 1 0.4
v -1 -1 0.4
v 1 1 0.4
f 26/2/1 27/3/1 25/1/1
f 26/2/1 25/1/1 28/4/1

v 1 -1 0.3
v -1 1 0.3
v -1 -1 0.3
v 1 1 0.3
f 30/2/1 31/3/1 29/1/1
f 30/2/1 29/1/1 32/4/1

v 1 -1 0.2
v -1 1 0.2
v -1 -1 0.2
v 1 1 0.2
f 34/2/1 35/3/1 33/1/1
f 34/2/1 33/1/1 36/4/1

v 1 -1 0.1
v -1 1 0.1
v -1 -1 0.1
v 1 1 0.1
f 38/2/1 39/3/1 37/1/1
f 38/2/1 37/1/1 40/4/1
